STARTFONT 2.1
COMMENT converted Oberon font (using FontToBDF by R.Crelier 10.1.91)
FONT Syntax16b.Scn.Fnt
SIZE 16 75 75
FONTBOUNDINGBOX  18 18 0 -4
STARTPROPERTIES 3
FONT_ASCENT 14
FONT_DESCENT 4
DEFAULT_CHAR 0
ENDPROPERTIES
CHARS 121
STARTCHAR c0
ENCODING -1 0
SWIDTH 0 0
DWIDTH 0 0
BBX 0 0 0 0
BITMAP
ENDCHAR
STARTCHAR c9
ENCODING -1 9
SWIDTH 516 0
DWIDTH 16 0
BBX 0 0 0 0
BITMAP
ENDCHAR
STARTCHAR c32
ENCODING -1 32
SWIDTH 129 0
DWIDTH 4 0
BBX 0 0 0 0
BITMAP
ENDCHAR
STARTCHAR c33
ENCODING -1 33
SWIDTH 193 0
DWIDTH 6 0
BBX 3 14 2 0
BITMAP
E0
E0
E0
E0
E0
E0
E0
E0
E0
00
00
E0
E0
E0
ENDCHAR
STARTCHAR c34
ENCODING -1 34
SWIDTH 258 0
DWIDTH 8 0
BBX 5 4 2 10
BITMAP
D8
D8
90
90
ENDCHAR
STARTCHAR c35
ENCODING -1 35
SWIDTH 354 0
DWIDTH 11 0
BBX 9 14 1 0
BITMAP
3600
3600
3600
3600
FF80
FF80
3600
3600
FF80
FF80
3600
3600
3600
3600
ENDCHAR
STARTCHAR c36
ENCODING -1 36
SWIDTH 322 0
DWIDTH 10 0
BBX 8 16 1 -2
BITMAP
3F
7F
E8
E8
E8
E8
7C
3E
17
17
17
17
FE
FC
10
10
ENDCHAR
STARTCHAR c37
ENCODING -1 37
SWIDTH 483 0
DWIDTH 15 0
BBX 14 14 1 0
BITMAP
7810
7830
CC60
CC40
CCC0
7980
7900
0278
0678
0CCC
08CC
18CC
3078
2078
ENDCHAR
STARTCHAR c38
ENCODING -1 38
SWIDTH 387 0
DWIDTH 12 0
BBX 12 14 0 0
BITMAP
1F00
3F80
7380
7380
7B00
3C00
1E70
3F70
7760
E3C0
E1C0
F3E0
FEF0
7C70
ENDCHAR
STARTCHAR c39
ENCODING -1 39
SWIDTH 129 0
DWIDTH 4 0
BBX 2 4 2 10
BITMAP
C0
C0
80
80
ENDCHAR
STARTCHAR c40
ENCODING -1 40
SWIDTH 225 0
DWIDTH 7 0
BBX 6 17 1 -3
BITMAP
0C
18
30
60
60
C0
C0
C0
C0
C0
C0
C0
60
60
30
18
0C
ENDCHAR
STARTCHAR c41
ENCODING -1 41
SWIDTH 225 0
DWIDTH 7 0
BBX 6 17 0 -3
BITMAP
C0
60
30
18
18
0C
0C
0C
0C
0C
0C
0C
18
18
30
60
C0
ENDCHAR
STARTCHAR c42
ENCODING -1 42
SWIDTH 354 0
DWIDTH 11 0
BBX 11 10 0 0
BITMAP
3180
3B80
1B00
0E00
FFE0
FFE0
0E00
1B00
3B80
3180
ENDCHAR
STARTCHAR c43
ENCODING -1 43
SWIDTH 322 0
DWIDTH 10 0
BBX 10 10 0 0
BITMAP
0C00
0C00
0C00
0C00
FFC0
FFC0
0C00
0C00
0C00
0C00
ENDCHAR
STARTCHAR c44
ENCODING -1 44
SWIDTH 161 0
DWIDTH 5 0
BBX 3 7 2 -4
BITMAP
E0
E0
E0
C0
C0
80
80
ENDCHAR
STARTCHAR c45
ENCODING -1 45
SWIDTH 354 0
DWIDTH 11 0
BBX 11 2 0 4
BITMAP
FFE0
FFE0
ENDCHAR
STARTCHAR c46
ENCODING -1 46
SWIDTH 161 0
DWIDTH 5 0
BBX 3 3 2 0
BITMAP
E0
E0
E0
ENDCHAR
STARTCHAR c47
ENCODING -1 47
SWIDTH 290 0
DWIDTH 9 0
BBX 7 14 1 0
BITMAP
06
06
0C
0C
08
18
18
30
30
20
60
60
C0
C0
ENDCHAR
STARTCHAR c48
ENCODING -1 48
SWIDTH 354 0
DWIDTH 11 0
BBX 9 13 1 0
BITMAP
1C00
7F00
6300
E380
E380
E380
E380
E380
E380
E380
6300
7F00
1C00
ENDCHAR
STARTCHAR c49
ENCODING -1 49
SWIDTH 354 0
DWIDTH 11 0
BBX 7 13 0 0
BITMAP
0E
1E
7E
EE
CE
0E
0E
0E
0E
0E
0E
0E
0E
ENDCHAR
STARTCHAR c50
ENCODING -1 50
SWIDTH 354 0
DWIDTH 11 0
BBX 9 13 1 0
BITMAP
3E00
FF00
C780
0380
0380
0300
0700
0E00
1C00
3800
7000
FF80
FF80
ENDCHAR
STARTCHAR c51
ENCODING -1 51
SWIDTH 354 0
DWIDTH 11 0
BBX 8 13 1 0
BITMAP
FC
FE
07
07
07
FE
F8
06
07
07
07
FE
FC
ENDCHAR
STARTCHAR c52
ENCODING -1 52
SWIDTH 354 0
DWIDTH 11 0
BBX 10 13 0 0
BITMAP
0700
0F00
1F00
1700
3700
2700
6700
4700
FFC0
FFC0
0700
0700
0700
ENDCHAR
STARTCHAR c53
ENCODING -1 53
SWIDTH 354 0
DWIDTH 11 0
BBX 9 13 1 0
BITMAP
FF00
FF00
E000
E000
FE00
FF00
0780
0380
0380
0380
0700
FE00
F800
ENDCHAR
STARTCHAR c54
ENCODING -1 54
SWIDTH 354 0
DWIDTH 11 0
BBX 10 13 0 0
BITMAP
0F80
3F80
7000
6000
E000
EF00
FF80
F3C0
E1C0
E1C0
7380
7F80
1E00
ENDCHAR
STARTCHAR c55
ENCODING -1 55
SWIDTH 354 0
DWIDTH 11 0
BBX 9 13 0 0
BITMAP
FF80
FF80
0380
0700
0700
0E00
0E00
1C00
1C00
1C00
3800
3800
3800
ENDCHAR
STARTCHAR c56
ENCODING -1 56
SWIDTH 354 0
DWIDTH 11 0
BBX 9 13 1 0
BITMAP
3E00
7F00
E180
E180
E180
7B00
1C00
6F00
C380
C380
C380
7F00
3E00
ENDCHAR
STARTCHAR c57
ENCODING -1 57
SWIDTH 354 0
DWIDTH 11 0
BBX 10 13 0 0
BITMAP
1E00
7F80
7380
E1C0
E1C0
F3C0
7FC0
3DC0
01C0
0180
0380
7F00
7C00
ENDCHAR
STARTCHAR c58
ENCODING -1 58
SWIDTH 193 0
DWIDTH 6 0
BBX 3 10 2 0
BITMAP
E0
E0
E0
00
00
00
00
E0
E0
E0
ENDCHAR
STARTCHAR c59
ENCODING -1 59
SWIDTH 193 0
DWIDTH 6 0
BBX 3 14 2 -4
BITMAP
E0
E0
E0
00
00
00
00
E0
E0
E0
C0
C0
80
80
ENDCHAR
STARTCHAR c60
ENCODING -1 60
SWIDTH 354 0
DWIDTH 11 0
BBX 11 10 0 0
BITMAP
00E0
03E0
0F80
3C00
F000
F000
3C00
0F80
03E0
00E0
ENDCHAR
STARTCHAR c61
ENCODING -1 61
SWIDTH 354 0
DWIDTH 11 0
BBX 11 6 0 2
BITMAP
FFE0
FFE0
0000
0000
FFE0
FFE0
ENDCHAR
STARTCHAR c62
ENCODING -1 62
SWIDTH 354 0
DWIDTH 11 0
BBX 11 10 0 0
BITMAP
E000
F800
3E00
0780
01E0
01E0
0780
3E00
F800
E000
ENDCHAR
STARTCHAR c63
ENCODING -1 63
SWIDTH 258 0
DWIDTH 8 0
BBX 7 14 1 0
BITMAP
F8
FE
0E
0E
0E
1C
38
70
70
70
00
70
70
70
ENDCHAR
STARTCHAR c64
ENCODING -1 64
SWIDTH 516 0
DWIDTH 16 0
BBX 14 15 1 -1
BITMAP
0FC0
3FF0
7038
601C
C3CC
C7CC
CCCC
CCCC
CCCC
CFCC
CECC
C0F8
6070
7E00
1E00
ENDCHAR
STARTCHAR c65
ENCODING -1 65
SWIDTH 354 0
DWIDTH 11 0
BBX 11 13 0 0
BITMAP
0F00
0F00
0F00
1B80
1B80
3B80
31C0
31C0
7FC0
7FE0
E0E0
E0E0
E0E0
ENDCHAR
STARTCHAR c66
ENCODING -1 66
SWIDTH 354 0
DWIDTH 11 0
BBX 9 13 1 0
BITMAP
FE00
FF00
E380
E380
E300
FE00
FE00
E700
E380
E380
E780
FF00
FE00
ENDCHAR
STARTCHAR c67
ENCODING -1 67
SWIDTH 322 0
DWIDTH 10 0
BBX 9 13 1 0
BITMAP
0F80
3F80
7800
7000
E000
E000
E000
E000
E000
E000
7180
7F80
1E00
ENDCHAR
STARTCHAR c68
ENCODING -1 68
SWIDTH 419 0
DWIDTH 13 0
BBX 11 13 2 0
BITMAP
FE00
FF80
E3C0
E1C0
E0E0
E0E0
E0E0
E0E0
E0E0
E1C0
E3C0
FF80
FE00
ENDCHAR
STARTCHAR c69
ENCODING -1 69
SWIDTH 354 0
DWIDTH 11 0
BBX 8 13 2 0
BITMAP
FF
FF
E0
E0
E0
FF
FF
E0
E0
E0
E0
FF
FF
ENDCHAR
STARTCHAR c70
ENCODING -1 70
SWIDTH 322 0
DWIDTH 10 0
BBX 8 13 2 0
BITMAP
FF
FF
E0
E0
E0
FF
FF
E0
E0
E0
E0
E0
E0
ENDCHAR
STARTCHAR c71
ENCODING -1 71
SWIDTH 387 0
DWIDTH 12 0
BBX 10 13 1 0
BITMAP
0F80
3F80
7800
7000
E000
E000
E1C0
E1C0
E1C0
E1C0
71C0
7FC0
1F00
ENDCHAR
STARTCHAR c72
ENCODING -1 72
SWIDTH 419 0
DWIDTH 13 0
BBX 10 13 2 0
BITMAP
E1C0
E1C0
E1C0
E1C0
E1C0
FFC0
FFC0
E1C0
E1C0
E1C0
E1C0
E1C0
E1C0
ENDCHAR
STARTCHAR c73
ENCODING -1 73
SWIDTH 193 0
DWIDTH 6 0
BBX 3 13 2 0
BITMAP
E0
E0
E0
E0
E0
E0
E0
E0
E0
E0
E0
E0
E0
ENDCHAR
STARTCHAR c74
ENCODING -1 74
SWIDTH 193 0
DWIDTH 6 0
BBX 5 13 0 0
BITMAP
38
38
38
38
38
38
38
38
38
38
38
F0
E0
ENDCHAR
STARTCHAR c75
ENCODING -1 75
SWIDTH 387 0
DWIDTH 12 0
BBX 10 13 2 0
BITMAP
E0C0
E1C0
E380
E700
EE00
EC00
F800
FC00
EE00
EF00
E780
E3C0
E1C0
ENDCHAR
STARTCHAR c76
ENCODING -1 76
SWIDTH 290 0
DWIDTH 9 0
BBX 7 13 2 0
BITMAP
E0
E0
E0
E0
E0
E0
E0
E0
E0
E0
E0
FE
FE
ENDCHAR
STARTCHAR c77
ENCODING -1 77
SWIDTH 548 0
DWIDTH 17 0
BBX 17 13 0 0
BITMAP
3C1E00
3C1E00
3C1E00
6E3700
6E3700
6E3700
666700
676700
C76380
C74380
C3C380
C3C380
C3C380
ENDCHAR
STARTCHAR c78
ENCODING -1 78
SWIDTH 419 0
DWIDTH 13 0
BBX 10 13 2 0
BITMAP
F8C0
F8C0
F8C0
DCC0
DCC0
DCC0
CCC0
CEC0
CEC0
CEC0
C7C0
C7C0
C7C0
ENDCHAR
STARTCHAR c79
ENCODING -1 79
SWIDTH 419 0
DWIDTH 13 0
BBX 12 13 1 0
BITMAP
0F00
3FC0
70E0
6060
E070
E070
E070
E070
E070
6060
70E0
3FC0
0F00
ENDCHAR
STARTCHAR c80
ENCODING -1 80
SWIDTH 354 0
DWIDTH 11 0
BBX 9 13 2 0
BITMAP
FE00
FF00
E780
E380
E380
E780
FF00
FE00
E000
E000
E000
E000
E000
ENDCHAR
STARTCHAR c81
ENCODING -1 81
SWIDTH 419 0
DWIDTH 13 0
BBX 12 16 1 -3
BITMAP
0F00
3FC0
70E0
6060
E070
E070
E070
E070
E070
6060
70E0
3FC0
0F00
01C0
00F0
0070
ENDCHAR
STARTCHAR c82
ENCODING -1 82
SWIDTH 354 0
DWIDTH 11 0
BBX 9 13 2 0
BITMAP
FE00
FF00
E780
E380
E380
E700
FE00
FC00
EE00
E700
E700
E380
E380
ENDCHAR
STARTCHAR c83
ENCODING -1 83
SWIDTH 290 0
DWIDTH 9 0
BBX 8 13 1 0
BITMAP
3F
7F
E0
E0
E0
F8
7E
1F
07
07
07
FE
FC
ENDCHAR
STARTCHAR c84
ENCODING -1 84
SWIDTH 322 0
DWIDTH 10 0
BBX 9 13 1 0
BITMAP
FF80
FF80
1C00
1C00
1C00
1C00
1C00
1C00
1C00
1C00
1C00
1C00
1C00
ENDCHAR
STARTCHAR c85
ENCODING -1 85
SWIDTH 419 0
DWIDTH 13 0
BBX 10 13 2 0
BITMAP
E0C0
E0C0
E0C0
E0C0
E0C0
E0C0
E0C0
E0C0
E0C0
E0C0
7180
7F80
1E00
ENDCHAR
STARTCHAR c86
ENCODING -1 86
SWIDTH 354 0
DWIDTH 11 0
BBX 10 13 1 0
BITMAP
E1C0
E1C0
E1C0
F1C0
7180
7380
7380
3B00
3B00
3B00
1E00
1E00
1E00
ENDCHAR
STARTCHAR c87
ENCODING -1 87
SWIDTH 580 0
DWIDTH 18 0
BBX 17 13 1 0
BITMAP
E1C380
E1C380
E1C380
F1E380
71E300
73E700
73E700
3B7600
3B7600
3B7600
1E3C00
1E3C00
1E3C00
ENDCHAR
STARTCHAR c88
ENCODING -1 88
SWIDTH 354 0
DWIDTH 11 0
BBX 10 13 1 0
BITMAP
E1C0
F1C0
7380
7B80
3B00
1E00
1E00
1E00
3700
7780
7380
E3C0
E1C0
ENDCHAR
STARTCHAR c89
ENCODING -1 89
SWIDTH 290 0
DWIDTH 9 0
BBX 9 13 0 0
BITMAP
E180
E180
F180
7300
7300
3E00
3E00
1C00
1C00
1C00
1C00
1C00
1C00
ENDCHAR
STARTCHAR c90
ENCODING -1 90
SWIDTH 322 0
DWIDTH 10 0
BBX 9 13 1 0
BITMAP
FF80
FF80
0380
0700
0F00
1E00
1C00
3800
7800
7000
E000
FF80
FF80
ENDCHAR
STARTCHAR c91
ENCODING -1 91
SWIDTH 225 0
DWIDTH 7 0
BBX 4 18 2 -4
BITMAP
F0
C0
C0
C0
C0
C0
C0
C0
C0
C0
C0
C0
C0
C0
C0
C0
C0
F0
ENDCHAR
STARTCHAR c92
ENCODING -1 92
SWIDTH 290 0
DWIDTH 9 0
BBX 7 14 1 0
BITMAP
C0
C0
60
60
20
30
30
18
18
08
0C
0C
06
06
ENDCHAR
STARTCHAR c93
ENCODING -1 93
SWIDTH 225 0
DWIDTH 7 0
BBX 4 18 1 -4
BITMAP
F0
30
30
30
30
30
30
30
30
30
30
30
30
30
30
30
30
F0
ENDCHAR
STARTCHAR c94
ENCODING -1 94
SWIDTH 354 0
DWIDTH 11 0
BBX 10 11 1 0
BITMAP
0C00
1E00
3F00
6D80
CCC0
0C00
0C00
0C00
0C00
0C00
0C00
ENDCHAR
STARTCHAR c95
ENCODING -1 95
SWIDTH 161 0
DWIDTH 5 0
BBX 5 2 0 4
BITMAP
F8
F8
ENDCHAR
STARTCHAR c96
ENCODING -1 96
SWIDTH 290 0
DWIDTH 9 0
BBX 5 3 1 11
BITMAP
E0
70
18
ENDCHAR
STARTCHAR c97
ENCODING -1 97
SWIDTH 290 0
DWIDTH 9 0
BBX 9 10 0 0
BITMAP
3E00
7F00
6700
0700
7F00
FF00
E700
E700
FB80
7380
ENDCHAR
STARTCHAR c98
ENCODING -1 98
SWIDTH 322 0
DWIDTH 10 0
BBX 9 14 1 0
BITMAP
E000
E000
E000
E000
EE00
FF00
F380
E380
E380
E380
E380
E700
FF00
FC00
ENDCHAR
STARTCHAR c99
ENCODING -1 99
SWIDTH 225 0
DWIDTH 7 0
BBX 7 10 0 0
BITMAP
1E
7E
70
E0
E0
E0
E0
E2
7E
3C
ENDCHAR
STARTCHAR c100
ENCODING -1 100
SWIDTH 322 0
DWIDTH 10 0
BBX 9 14 0 0
BITMAP
0380
0380
0380
0380
1F80
7F80
7380
E380
E380
E380
E380
E780
7F80
3B80
ENDCHAR
STARTCHAR c101
ENCODING -1 101
SWIDTH 290 0
DWIDTH 9 0
BBX 9 10 0 0
BITMAP
3E00
7F00
E380
E380
FF80
FF80
E000
E180
7F80
3E00
ENDCHAR
STARTCHAR c102
ENCODING -1 102
SWIDTH 193 0
DWIDTH 6 0
BBX 6 14 0 0
BITMAP
3C
7C
70
70
FC
FC
70
70
70
70
70
70
70
70
ENDCHAR
STARTCHAR c103
ENCODING -1 103
SWIDTH 290 0
DWIDTH 9 0
BBX 9 14 0 -4
BITMAP
3F80
FF80
E700
E700
FF00
3C00
6000
E000
FF00
7F80
0380
C380
FF00
7E00
ENDCHAR
STARTCHAR c104
ENCODING -1 104
SWIDTH 354 0
DWIDTH 11 0
BBX 9 14 1 0
BITMAP
E000
E000
E000
E000
E700
EF80
FF80
F380
E380
E380
E380
E380
E380
E380
ENDCHAR
STARTCHAR c105
ENCODING -1 105
SWIDTH 161 0
DWIDTH 5 0
BBX 3 14 1 0
BITMAP
E0
E0
E0
00
E0
E0
E0
E0
E0
E0
E0
E0
E0
E0
ENDCHAR
STARTCHAR c106
ENCODING -1 106
SWIDTH 161 0
DWIDTH 5 0
BBX 4 18 0 -4
BITMAP
70
70
70
00
70
70
70
70
70
70
70
70
70
70
70
70
E0
C0
ENDCHAR
STARTCHAR c107
ENCODING -1 107
SWIDTH 322 0
DWIDTH 10 0
BBX 9 14 1 0
BITMAP
E000
E000
E000
E000
E380
E700
E600
EC00
F800
EE00
EF00
E700
E780
E380
ENDCHAR
STARTCHAR c108
ENCODING -1 108
SWIDTH 161 0
DWIDTH 5 0
BBX 3 14 1 0
BITMAP
E0
E0
E0
E0
E0
E0
E0
E0
E0
E0
E0
E0
E0
E0
ENDCHAR
STARTCHAR c109
ENCODING -1 109
SWIDTH 548 0
DWIDTH 17 0
BBX 15 10 1 0
BITMAP
E71C
EFBE
FFFE
F3CE
E38E
E38E
E38E
E38E
E38E
E38E
ENDCHAR
STARTCHAR c110
ENCODING -1 110
SWIDTH 354 0
DWIDTH 11 0
BBX 9 10 1 0
BITMAP
E700
EF80
FF80
F380
E380
E380
E380
E380
E380
E380
ENDCHAR
STARTCHAR c111
ENCODING -1 111
SWIDTH 322 0
DWIDTH 10 0
BBX 10 10 0 0
BITMAP
1E00
7F80
7380
E1C0
E1C0
E1C0
E1C0
7380
7F80
1E00
ENDCHAR
STARTCHAR c112
ENCODING -1 112
SWIDTH 322 0
DWIDTH 10 0
BBX 9 14 1 -4
BITMAP
EE00
FF00
F380
E380
E380
E380
E380
E700
FF00
FC00
E000
E000
E000
E000
ENDCHAR
STARTCHAR c113
ENCODING -1 113
SWIDTH 322 0
DWIDTH 10 0
BBX 9 14 0 -4
BITMAP
1F80
7F80
7380
E380
E380
E380
E380
E780
7F80
3B80
0380
0380
0380
0380
ENDCHAR
STARTCHAR c114
ENCODING -1 114
SWIDTH 225 0
DWIDTH 7 0
BBX 6 10 1 0
BITMAP
EC
EC
FC
F0
E0
E0
E0
E0
E0
E0
ENDCHAR
STARTCHAR c115
ENCODING -1 115
SWIDTH 225 0
DWIDTH 7 0
BBX 7 10 0 0
BITMAP
3E
FE
E0
E0
FC
7E
0E
0E
FE
F8
ENDCHAR
STARTCHAR c116
ENCODING -1 116
SWIDTH 193 0
DWIDTH 6 0
BBX 6 14 0 0
BITMAP
70
70
70
70
FC
FC
70
70
70
70
70
70
7C
3C
ENDCHAR
STARTCHAR c117
ENCODING -1 117
SWIDTH 354 0
DWIDTH 11 0
BBX 9 10 1 0
BITMAP
E380
E380
E380
E380
E380
E380
E780
FF80
FB80
7380
ENDCHAR
STARTCHAR c118
ENCODING -1 118
SWIDTH 290 0
DWIDTH 9 0
BBX 9 10 0 0
BITMAP
E380
E380
E380
7300
7700
7600
7600
3C00
3C00
3C00
ENDCHAR
STARTCHAR c119
ENCODING -1 119
SWIDTH 483 0
DWIDTH 15 0
BBX 15 10 0 0
BITMAP
E38E
E38E
E38E
73CC
77DC
77D8
75D8
3CF0
3CF0
3CF0
ENDCHAR
STARTCHAR c120
ENCODING -1 120
SWIDTH 290 0
DWIDTH 9 0
BBX 9 10 0 0
BITMAP
E380
E380
7700
7600
1E00
3C00
3700
7700
E380
E380
ENDCHAR
STARTCHAR c121
ENCODING -1 121
SWIDTH 290 0
DWIDTH 9 0
BBX 9 14 0 -4
BITMAP
E380
E380
E380
7300
7700
7600
7600
3C00
3C00
3C00
1800
1800
F000
E000
ENDCHAR
STARTCHAR c122
ENCODING -1 122
SWIDTH 258 0
DWIDTH 8 0
BBX 8 10 0 0
BITMAP
FF
FF
0E
1C
1C
38
38
70
FF
FF
ENDCHAR
STARTCHAR c123
ENCODING -1 123
SWIDTH 225 0
DWIDTH 7 0
BBX 7 17 0 -3
BITMAP
0E
18
30
30
30
30
30
20
C0
20
30
30
30
30
30
18
0E
ENDCHAR
STARTCHAR c124
ENCODING -1 124
SWIDTH 258 0
DWIDTH 8 0
BBX 2 17 3 -3
BITMAP
C0
C0
C0
C0
C0
C0
C0
C0
C0
C0
C0
C0
C0
C0
C0
C0
C0
ENDCHAR
STARTCHAR c125
ENCODING -1 125
SWIDTH 225 0
DWIDTH 7 0
BBX 7 17 0 -3
BITMAP
E0
30
18
18
18
18
18
08
06
08
18
18
18
18
18
30
E0
ENDCHAR
STARTCHAR c126
ENCODING -1 126
SWIDTH 387 0
DWIDTH 12 0
BBX 12 5 0 3
BITMAP
3C30
7E30
C630
C7E0
C3C0
ENDCHAR
STARTCHAR c128
ENCODING -1 128
SWIDTH 354 0
DWIDTH 11 0
BBX 11 14 0 0
BITMAP
6060
6F60
0F00
0B00
1B80
1980
3180
31C0
7FC0
7FC0
60E0
E0E0
E0E0
E0E0
ENDCHAR
STARTCHAR c129
ENCODING -1 129
SWIDTH 419 0
DWIDTH 13 0
BBX 12 14 1 0
BITMAP
C030
CF30
3FC0
70E0
6060
E070
E070
E070
E070
E070
6060
70E0
3FC0
0F00
ENDCHAR
STARTCHAR c130
ENCODING -1 130
SWIDTH 419 0
DWIDTH 13 0
BBX 10 14 2 0
BITMAP
0A00
EAC0
EAC0
E0C0
E0C0
E0C0
E0C0
E0C0
E0C0
E0C0
E0C0
7180
7F80
1E00
ENDCHAR
STARTCHAR c131
ENCODING -1 131
SWIDTH 290 0
DWIDTH 9 0
BBX 9 13 0 0
BITMAP
3300
3300
0000
3E00
7F00
6700
0700
7F00
FF00
E700
E700
FB80
7380
ENDCHAR
STARTCHAR c132
ENCODING -1 132
SWIDTH 322 0
DWIDTH 10 0
BBX 10 13 0 0
BITMAP
3300
3300
0000
1E00
7F80
7380
E1C0
E1C0
E1C0
E1C0
7380
7F80
1E00
ENDCHAR
STARTCHAR c133
ENCODING -1 133
SWIDTH 354 0
DWIDTH 11 0
BBX 9 13 1 0
BITMAP
3600
3600
0000
E380
E380
E380
E380
E380
E380
E780
FF80
FB80
7380
ENDCHAR
STARTCHAR c134
ENCODING -1 134
SWIDTH 290 0
DWIDTH 9 0
BBX 9 14 0 0
BITMAP
1C00
3600
6300
0000
3E00
7F00
6700
0700
7F00
FF00
E700
E700
FB80
7380
ENDCHAR
STARTCHAR c135
ENCODING -1 135
SWIDTH 290 0
DWIDTH 9 0
BBX 9 14 0 0
BITMAP
1C00
3600
6300
0000
3E00
7F00
E380
E380
FF80
FF80
E000
E180
7F80
3E00
ENDCHAR
STARTCHAR c136
ENCODING -1 136
SWIDTH 161 0
DWIDTH 5 0
BBX 5 14 0 0
BITMAP
70
D8
88
00
70
70
70
70
70
70
70
70
70
70
ENDCHAR
STARTCHAR c137
ENCODING -1 137
SWIDTH 322 0
DWIDTH 10 0
BBX 10 14 0 0
BITMAP
1E00
3300
6180
0000
1E00
7F80
7380
E1C0
E1C0
E1C0
E1C0
7380
7F80
1E00
ENDCHAR
STARTCHAR c138
ENCODING -1 138
SWIDTH 354 0
DWIDTH 11 0
BBX 9 14 1 0
BITMAP
1C00
3600
6300
0000
E380
E380
E380
E380
E380
E380
E780
FF80
FB80
7380
ENDCHAR
STARTCHAR c139
ENCODING -1 139
SWIDTH 290 0
DWIDTH 9 0
BBX 9 14 0 0
BITMAP
7000
3800
0C00
0000
3E00
7F00
6700
0700
7F00
FF00
E700
E700
FB80
7380
ENDCHAR
STARTCHAR c140
ENCODING -1 140
SWIDTH 290 0
DWIDTH 9 0
BBX 9 14 0 0
BITMAP
3800
1C00
0600
0000
3E00
7F00
E380
E380
FF80
FF80
E000
E180
7F80
3E00
ENDCHAR
STARTCHAR c141
ENCODING -1 141
SWIDTH 161 0
DWIDTH 5 0
BBX 5 14 0 0
BITMAP
E0
70
18
00
70
70
70
70
70
70
70
70
70
70
ENDCHAR
STARTCHAR c142
ENCODING -1 142
SWIDTH 322 0
DWIDTH 10 0
BBX 10 14 0 0
BITMAP
3800
1C00
0600
0000
1E00
7F80
7380
E1C0
E1C0
E1C0
E1C0
7380
7F80
1E00
ENDCHAR
STARTCHAR c143
ENCODING -1 143
SWIDTH 354 0
DWIDTH 11 0
BBX 9 14 1 0
BITMAP
3800
1C00
0600
0000
E380
E380
E380
E380
E380
E380
E780
FF80
FB80
7380
ENDCHAR
STARTCHAR c144
ENCODING -1 144
SWIDTH 290 0
DWIDTH 9 0
BBX 9 14 0 0
BITMAP
0700
0E00
1800
0000
3E00
7F00
E380
E380
FF80
FF80
E000
E180
7F80
3E00
ENDCHAR
STARTCHAR c145
ENCODING -1 145
SWIDTH 290 0
DWIDTH 9 0
BBX 9 13 0 0
BITMAP
3300
3300
0000
3E00
7F00
E380
E380
FF80
FF80
E000
E180
7F80
3E00
ENDCHAR
STARTCHAR c146
ENCODING -1 146
SWIDTH 161 0
DWIDTH 5 0
BBX 5 13 0 0
BITMAP
D8
D8
00
70
70
70
70
70
70
70
70
70
70
ENDCHAR
STARTCHAR c147
ENCODING -1 147
SWIDTH 225 0
DWIDTH 7 0
BBX 7 14 0 -4
BITMAP
1E
7E
70
E0
E0
E0
E0
E2
7E
3C
00
38
18
10
ENDCHAR
STARTCHAR c148
ENCODING -1 148
SWIDTH 290 0
DWIDTH 9 0
BBX 9 14 0 0
BITMAP
0380
0700
0C00
0000
3E00
7F00
6700
0700
7F00
FF00
E700
E700
FB80
7380
ENDCHAR
STARTCHAR c149
ENCODING -1 149
SWIDTH 354 0
DWIDTH 11 0
BBX 9 14 1 0
BITMAP
3900
5D00
4E00
0000
E700
EF80
FF80
F380
E380
E380
E380
E380
E380
E380
ENDCHAR
STARTCHAR c155
ENCODING -1 155
SWIDTH 322 0
DWIDTH 10 0
BBX 10 2 0 4
BITMAP
FFC0
FFC0
ENDCHAR
STARTCHAR c159
ENCODING -1 159
SWIDTH 354 0
DWIDTH 11 0
BBX 0 0 0 0
BITMAP
ENDCHAR
ENDFONT
